<?xml version="1.0" encoding="utf-8"?>
<!-- Uploaded to: SVG Repo, www.svgrepo.com, Generator: SVG Repo Mixer Tools -->
<svg width="800px" height="800px" viewBox="0 0 32 32" id="key_Light" data-name="key/Light" xmlns="http://www.w3.org/2000/svg">
  <path id="Path" d="M0,0H8V2H6v8H8v2h4V32H0Z" fill="#ffffff"/>
  <path id="Path-2" data-name="Path" d="M2,0H14V2h2v8H14v2H10V22h4v4H10v2h4v4H6V12H2V10H0V2H2Z" transform="translate(6)" fill="#1a1a1a"/>
  <path id="Path-3" data-name="Path" d="M4,0H16V32H4V28H0V26H4V22H0V12H4V10H6V2H4Z" transform="translate(16)" fill="#ffffff"/>
  <path id="Path-4" data-name="Path" d="M0,0H8V4H0Z" transform="translate(10 4)" fill="#ffffff"/>
</svg>
